# xmcd CD database file
#
# Track frame offsets:
#	150
#	14221
#	27261
#	40608
#	51141
#	64181
#	77249
#	90039
#	102940
#	112943
#	125342
#	140389
#	154649
#	204453
#	248316
#	257751
#
# Disc length: 4132 seconds
#
# Revision: 1
# Processed by: cddbd v1.5.1PL0 Copyright (c) Steve Scherf et al.
# Submitted via: CDex 1.51
#
DISCID=c3102210
DTITLE=° Dinah Washington ° - ° Lover come back to me °
DYEAR=1900
DGENRE=Jazz
TTITLE0=Mellow mama blues
TTITLE1=Rich man's blues
TTITLE2=Postman blues
TTITLE3=Shuckin' and Jivin'
TTITLE4=I wanna be loved
TTITLE5=Evil gal blues
TTITLE6=All or nothing blues
TTITLE7=Blues for a day
TTITLE8=Fast movin' mama
TTITLE9=Big deal
TTITLE10=Time out for tears
TTITLE11=No more
TTITLE12=You go to my head
TTITLE13=Lover com back to me
TTITLE14=There is no greater love
TTITLE15=I'll remembert april
EXTD=
EXTT0=
EXTT1=
EXTT2=
EXTT3=
EXTT4=
EXTT5=
EXTT6=
EXTT7=
EXTT8=
EXTT9=
EXTT10=
EXTT11=
EXTT12=
EXTT13=
EXTT14=
EXTT15=
PLAYORDER=
